<?xml version="1.0" standalone="no"?><!DOCTYPE svg PUBLIC "-//W3C//DTD SVG 1.1//EN" "http://www.w3.org/Graphics/SVG/1.1/DTD/svg11.dtd"><svg t="1702554235020" class="icon" viewBox="0 0 1024 1024" version="1.1" xmlns="http://www.w3.org/2000/svg" p-id="1334" xmlns:xlink="http://www.w3.org/1999/xlink" width="200" height="200"><path d="M340.0192 752.4864L153.088 827.904l13.568 113.1008 217.7024-85.4528v-73.1136c-0.0512-22.8864-23.1424-38.4512-44.3392-29.952zM946.0224 521.1136c-23.5008-49.3568-85.9648-68.6592-139.52-43.1616-45.1072 21.4528-77.1584 65.7408-61.952 111.5136l-52.8896 21.3504a37.5808 37.5808 0 0 0-23.5008 34.816v30.208c0 20.2752-16.4352 36.7616-36.7616 36.7616s-36.7616-16.4352-36.7616-36.7616v-0.1536c0-12.288-12.4416-20.6848-23.8592-16.0768l-54.272 21.8624a54.05696 54.05696 0 0 0-33.8432 50.1248v85.4528l392.9088-154.2144c5.376-1.6384 10.7008-3.584 15.9232-6.0928 53.6064-25.6512 77.9776-86.3232 54.528-135.6288z" fill="#FFE8D2" p-id="1335"></path><path d="M875.5712 662.6816c5.376-1.6384 10.7008-3.584 15.9232-6.0928 53.5552-25.4976 77.9776-86.1696 54.4768-135.5264-19.9168-41.8304-67.7888-61.952-114.5344-51.6608 26.7264 9.3696 65.0752 30.5664 72.0896 76.4928 5.0688 42.24-12.6464 54.0672-86.1184 87.4496-20.4288 9.2672-80.2816 33.4336-155.9552 63.488a36.736 36.736 0 0 1-37.5296 14.848c-44.6464 17.664-93.0816 36.6592-141.2096 55.5008v49.664l392.8576-154.1632zM384.1024 800.4096l-217.4464 82.5344 5.2736 56.5248 221.2352-86.3232z" fill="#E8AD80" p-id="1336"></path><path d="M411.2896 117.4016C271.0528 135.8848 297.472 261.376 324.1984 285.9008c2.816 0.0512 5.5808 0.1536 8.3456 0.2048L153.088 827.904s81.2544-32.512 197.0176-78.9504c16.384-6.5536 34.2528 5.4784 34.2528 23.1424v117.2992c0 26.2144 19.7632 49.1008 45.9264 50.7904 28.672 1.8432 52.48-20.8384 52.48-49.1008V721.92c0-15.8208 9.6256-30.0544 24.32-35.9936 21.1456-8.4992 42.4448-17.6128 64.3584-25.9072 23.7056-8.96 23.296 101.0176 23.296 112.9984 0 20.2752 16.4352 36.7616 36.7616 36.7616s36.7616-16.4352 36.7616-36.7616v-152.0128c25.7024-10.3424 51.3024-20.6848 76.4928-30.8736-0.6144-3.2768-1.024-6.6048-1.2288-9.9328-0.4096-7.4752-0.6144-10.6496-0.6144-10.6496s-5.888-52.992 67.6352-89.9584c73.5232-36.9152 128.256 27.2896 128.256 27.2896-165.12-339.0976-493.2608-391.3728-527.5136-389.4784z" fill="#FFC31A" p-id="1337"></path><path d="M938.7008 506.88C773.6832 167.7824 445.5424 115.5072 411.2896 117.4016c-26.2144 3.4304-46.592 10.6496-62.2592 20.224 91.3408 18.8928 400.2816 99.6352 471.296 337.664 68.4544-26.8288 118.3744 31.5904 118.3744 31.5904zM482.7136 891.0336v-169.1648c0-15.8208 9.6256-30.0544 24.32-35.9936 7.168-2.8672 14.4384-5.7856 21.6576-8.704-11.5712-1.2288-19.4048-1.9456-19.4048-1.9456s-72.3456 10.752-72.3456 84.224v130.048c0 14.0288-17.8688 36.4032-51.4048 10.5984 4.5568 21.4016 22.272 38.5024 44.7488 39.9872 28.6208 1.8944 52.4288-20.7872 52.4288-49.0496zM629.7088 646.9632c0.8192 13.312 1.4848 80.0768 1.4848 108.7488 0 30.5152-10.1888 31.8464-20.9408 18.6368-2.2016-2.7136-9.9328-0.6144-14.1824-1.3312 4.4544 15.3088 18.5344 26.5216 35.2768 26.5216a36.7616 36.7616 0 0 0 36.7616-36.7616v-141.7728c25.7024-10.3424 51.3024-20.6848 76.4928-30.8736-0.1024-0.4608-0.1024-0.9216-0.1536-1.3824-39.3728 4.1472-116.4288 17.3568-114.7392 58.2144z" fill="#F48806" p-id="1338"></path><path d="M267.0592 483.7888c13.8752 28.0064 42.6496 47.3088 75.9808 47.3088 46.848 0 84.7872-37.9904 84.7872-84.7872 0-46.848-37.9904-84.7872-84.7872-84.7872-13.8752 0-26.9824 3.4304-38.5536 9.3184l-37.4272 112.9472z" fill="#FFE8D2" p-id="1339"></path><path d="M258.7136 692.1216a66.7136 57.6 0 1 0 133.4272 0 66.7136 57.6 0 1 0-133.4272 0Z" fill="#FFE8D2" p-id="1340"></path><path d="M641.6896 417.9968s-61.9008 8.6016-58.2656 67.7376c3.2768 53.2992 91.136 70.144 109.4144 17.4592-21.8624-56.4224-51.1488-85.1968-51.1488-85.1968z" fill="#FFE8D2" p-id="1341"></path><path d="M570.0608 192.512c2.6112 1.4336 5.2224 2.8672 7.8848 4.3008 3.1744 1.7408 6.6048 2.6112 9.984 2.6112 7.168 0 14.1312-3.7888 17.92-10.496a20.48 20.48 0 0 0-7.8848-27.8528c-2.816-1.536-5.5808-3.072-8.3456-4.608a20.50048 20.50048 0 0 0-27.7504 8.2944 20.36736 20.36736 0 0 0 8.192 27.7504z" fill="#293E40" p-id="1342"></path><path d="M905.6768 496.0256c-1.8432-3.9424-3.9936-7.68-6.2464-11.3152-0.3584-1.1776-0.8192-2.4064-1.3824-3.5328-63.4368-122.1632-147.2-219.1872-248.9856-288.4608a20.50048 20.50048 0 0 0-28.4672 5.4272 20.50048 20.50048 0 0 0 5.4272 28.4672c76.5952 52.1728 142.4896 121.2416 196.608 205.9264-27.8016-5.6832-57.1392-2.048-83.7632 10.6496a134.43072 134.43072 0 0 0-52.5312 44.3904C624.128 361.3184 521.1648 302.08 443.136 274.432c-90.112-31.8976-165.5296-29.5424-168.704-29.44-0.4608 0-0.8704 0.1024-1.3312 0.1536-4.1984-10.24-6.4-21.248-6.4-32.5632 0-47.8208 38.8096-86.784 86.6304-86.9376 3.9936 0.1536 64.6656 2.9696 146.2784 34.4576 10.5472 4.0448 22.4256-1.1776 26.4704-11.7248 4.096-10.5472-1.1776-22.4256-11.7248-26.4704-91.136-35.1744-157.44-37.12-160.7168-37.1712-70.5024 0-127.8976 57.3952-127.8976 127.8976 0 25.6 7.5776 50.0224 21.8112 71.168l-21.2992 64.3072-37.4272 112.9984v0.0512l-7.5776 22.8864c-3.584 10.752 2.2528 22.3232 13.0048 25.856 6.4512 2.1504 13.1584 0.8704 18.2784-2.816 19.0976 17.8688 44.4416 28.2112 71.7312 28.2112 58.0608 0 105.2672-47.2576 105.2672-105.2672s-47.2064-105.2672-105.2672-105.2672c-2.4064 0-4.8128 0.1024-7.168 0.256l12.8512-38.8608c24.832 0.9216 79.6672 5.5296 140.9024 27.4432 51.5584 18.432 95.9488 44.544 133.0688 77.9264-23.296 14.5408-45.5168 41.5232-38.5024 84.48 5.632 34.2528 36.8128 59.136 75.776 60.4672 1.0752 0.0512 2.0992 0.0512 3.1744 0.0512 20.1216 0 37.9904-6.656 51.0976-18.2272 2.048 4.5056 4.096 9.0112 5.9904 13.6192 0.1536 0.3584 0.3072 0.6656 0.4608 0.9728l0.7168 1.4848c-0.2048 2.816-0.3072 5.5296-0.3072 8.2432 0 3.6864-0.1024 6.4-0.1536 8.5504-0.1024 3.584-0.1536 6.656 0.2048 9.728l-37.1712 14.7456c-3.6352 1.4848-7.0656 3.2768-10.24 5.376a49.4848 49.4848 0 0 0-26.0608 43.6736v142.4384c0 8.96-7.3216 16.2816-16.2816 16.2816s-16.2816-7.3216-16.2816-16.2816v-107.52c0-12.4416-6.144-24.064-16.4864-31.0272a37.37088 37.37088 0 0 0-34.9184-3.6864L454.2976 645.12c-30.9248 12.4416-50.8928 41.984-50.8928 75.3152v154.3168c0 8.0384-3.2256 15.4624-9.0624 20.9408a28.544 28.544 0 0 1-21.5552 7.68c-14.7456-0.9728-26.7776-14.5408-26.7776-30.3104V761.2928c0-12.9024-5.12-25.0368-13.8752-34.0992 13.4656-13.7216 21.7088-31.6928 21.7088-51.3536 0-43.0592-39.1168-78.08-87.1936-78.08S179.4048 632.7808 179.4048 675.84c0 26.5728 14.9504 50.0736 37.6832 64.1536l-89.4976 36.096 64.6656-195.1744c3.584-10.752-2.2528-22.3232-13.0048-25.856-10.752-3.584-22.3232 2.2528-25.856 13.0048l-78.5408 237.1584c-0.1536 0.4096-0.2048 0.8192-0.3072 1.2288-0.1024 0.4096-0.256 0.8192-0.3072 1.28-0.1536 0.7168-0.2048 1.4336-0.256 2.1504-0.0512 0.3072-0.1024 0.6656-0.1024 0.9728-0.0512 1.0752 0 2.0992 0.1024 3.1744v0.1024l13.568 113.1008a20.6336 20.6336 0 0 0 9.8304 15.1552 20.30592 20.30592 0 0 0 17.9712 1.4848l189.696-74.496v3.7888c0 37.5808 28.5696 68.864 65.0752 71.2192 1.5872 0.1024 3.1232 0.1536 4.6592 0.1536 17.7664 0 34.5088-6.6048 47.5648-18.8416 13.9776-13.1072 22.016-31.6416 22.016-50.8416v-154.3168c0-16.5376 9.8816-31.1808 25.1904-37.3248l45.7728-18.432v78.08l-37.4784 14.7968a20.44928 20.44928 0 0 0-11.52 26.5728 20.50048 20.50048 0 0 0 26.5728 11.52l25.6-10.0864c7.7312 22.4768 29.0304 38.7072 54.0672 38.7072 31.5392 0 57.2416-25.6512 57.2416-57.2416v-107.4688-30.2592c0-5.2736 2.3552-10.0864 6.2464-13.2096l57.4464-23.1936a20.52096 20.52096 0 0 0 12.4928-22.5792c-0.4608-2.4576-0.768-5.0176-0.9216-7.4752-2.5088-33.4336 17.8176-66.6624 51.4048-82.6368 21.248-10.0864 44.7488-12.032 66.2016-5.4272 20.8384 6.4512 37.1712 20.2752 46.0288 38.912 8.8576 18.6368 9.2672 40.0384 1.1264 60.2624-8.3456 20.7872-24.6784 37.8368-45.9264 47.9744-3.7888 1.792-8.0896 3.4304-13.1584 5.0176-0.512 0.1536-0.9728 0.3072-1.4848 0.512l-130.9696 51.5584a20.47488 20.47488 0 0 0-11.5712 26.5728 20.55168 20.55168 0 0 0 19.0464 13.0048c2.5088 0 5.0176-0.4608 7.4752-1.4336l130.2528-51.3024c6.656-2.0992 12.4928-4.352 17.92-6.912 30.5664-14.5408 54.1184-39.2704 66.3552-69.6832 12.544-31.1808 11.776-64.256-2.0992-93.3376zM284.2624 365.6704c35.4816 0 64.3072 28.8768 64.3072 64.3072s-28.8768 64.3072-64.3072 64.3072c-21.9136 0-41.8304-10.9568-53.6576-28.9792l31.744-95.744c6.9632-2.6112 14.336-3.8912 21.9136-3.8912z m-17.664 273.0496c25.4976 0 46.2336 16.64 46.2336 37.12s-20.736 37.12-46.2336 37.12-46.2336-16.64-46.2336-37.12 20.736-37.12 46.2336-37.12z m-141.568 257.2288l-8.5504-71.168c27.5456-11.008 92.0576-36.864 175.4112-70.2976 3.7888-0.4608 6.7584 1.0752 7.9872 1.8944 1.536 1.0752 5.1712 4.096 5.1712 9.728v59.1872l-180.0192 70.656z m477.5936-400.4864c-15.7184-0.5632-33.9456-8.96-36.7616-26.2144-4.5568-27.5968 13.4656-40.8064 25.9584-46.5408 9.5744 9.6768 26.3168 28.8768 42.1376 57.8048-7.7824 14.8992-27.136 15.104-31.3344 14.9504z" fill="#293E40" p-id="1343"></path><path d="M539.2896 287.3344c-4.0448 0-8.0896-1.1776-11.6736-3.6864-39.2704-27.2896-65.1264-36.9664-83.2512-42.2912a20.45952 20.45952 0 0 1-13.824-25.4464 20.45952 20.45952 0 0 1 25.4464-13.824c19.456 5.7344 50.4832 16.9472 95.0272 47.9744a20.51072 20.51072 0 0 1 5.12 28.5184 20.5312 20.5312 0 0 1-16.8448 8.7552z" fill="#FFFFFF" p-id="1344"></path><path d="M389.5808 224.8192c-1.4848 0-3.0208-0.1536-4.5568-0.512-7.0656-1.5872-11.2128-2.3552-11.4688-2.4064a20.49536 20.49536 0 0 1-16.64-23.7056c1.9456-11.1104 12.544-18.6368 23.6544-16.64 0.2048 0.0512 5.1712 0.9216 13.5168 2.816a20.48 20.48 0 0 1-4.5056 40.448z" fill="#FFFFFF" p-id="1345"></path></svg>